<svg xmlns="http://www.w3.org/2000/svg" width="666.667" height="666.667" preserveAspectRatio="xMidYMid meet" version="1.0" viewBox="0 0 500 500"><metadata>Created by potrace 1.14, written by Peter Selinger 2001-2017</metadata><g fill="#000" stroke="none"><path d="M2497 2589 c-450 -397 -816 -723 -814 -726 3 -2 369 316 814 707 912 804 840 740 828 740 -6 0 -378 -325 -828 -721z" transform="translate(0.000000,500.000000) scale(0.100000,-0.100000)"/><path d="M1539 3212 c32 -15 48 -44 175 -310 77 -161 145 -291 150 -289 6 2 34 70 63 152 29 81 54 149 56 151 2 3 37 -66 78 -151 41 -85 79 -155 84 -155 6 0 52 123 104 273 52 149 100 284 108 299 8 17 26 31 46 37 27 8 20 9 -43 9 -45 0 -65 -3 -50 -7 14 -4 26 -15 28 -26 1 -11 -33 -120 -76 -242 l-78 -223 -78 159 -78 159 17 53 c28 86 42 108 78 118 23 6 -22 9 -153 9 -102 0 -176 -3 -165 -5 11 -3 26 -10 34 -17 17 -13 131 -245 131 -266 0 -22 -61 -200 -68 -200 -12 0 -223 452 -218 465 3 8 17 15 33 18 15 2 -26 5 -92 5 l-120 2 34 -18z m518 -8 c6 -16 -26 -124 -37 -124 -12 0 -63 118 -56 129 11 18 86 14 93 -5z" transform="translate(0.000000,500.000000) scale(0.100000,-0.100000)"/><path d="M2795 2549 c27 -7 40 -28 118 -184 l87 -175 0 -109 c0 -112 -4 -124 -45 -134 -11 -2 32 -5 95 -5 63 0 106 3 95 5 -42 11 -45 21 -45 154 l0 129 66 148 c75 166 77 169 107 175 12 2 -7 4 -43 4 -36 0 -55 -2 -42 -4 13 -3 25 -10 28 -17 4 -10 -117 -290 -132 -305 -7 -7 -145 293 -140 305 3 7 20 14 38 17 18 2 -23 4 -92 4 -87 1 -116 -1 -95 -8z" transform="translate(0.000000,500.000000) scale(0.100000,-0.100000)"/></g></svg>